<?xml version="1.0" encoding="utf-8"?>
<!-- Generator: Adobe Illustrator 26.1.0, SVG Export Plug-In . SVG Version: 6.00 Build 0)  -->
<svg version="1.1" id="Слой_1" xmlns="http://www.w3.org/2000/svg" xmlns:xlink="http://www.w3.org/1999/xlink" x="0px" y="0px"
	 viewBox="0 0 1008.2 129.8" style="enable-background:new 0 0 1008.2 129.8;" xml:space="preserve">
<style type="text/css">
	.st0{fill-rule:evenodd;clip-rule:evenodd;fill:#000002;}
	.st1{fill-rule:evenodd;clip-rule:evenodd;fill:none;stroke:#000002;stroke-width:18;stroke-miterlimit:10;}
	.st2{fill-rule:evenodd;clip-rule:evenodd;fill:#E81E25;}
</style>
<g>
	<path class="st0" d="M65.8,62.8h62.4v8.6c0,17.1-5.6,31.2-16.9,42.1c-11.2,10.8-25.9,16.2-44.2,16.2c-19.3,0-35.2-6.2-47.8-18.7
		C6.7,98.4,0.5,83.1,0.5,64.9c0-18.1,6.2-33.4,18.7-45.8C31.8,6.5,47.4,0.2,65.9,0.2c11.5,0,22.1,2.6,31.8,7.9
		c9.7,5.3,17.2,12.5,22.6,21.7l-17.7,10.2c-3.3-6.1-8.3-10.9-14.8-14.4c-6.5-3.6-13.9-5.4-21.9-5.4c-13.1,0-23.8,4.3-32.3,12.8
		C25.2,41.7,21,52.4,21,65.1c0,12.8,4.2,23.5,12.7,31.9c8.7,8.4,19.9,12.7,33.5,12.7c10.9,0,19.9-2.6,26.9-7.7
		c7-5.1,11.5-12.1,13.4-20.9H65.8V62.8z"/>
	<polygon class="st0" points="180.8,74 180.8,107.7 236.1,107.7 236.1,127.3 160.3,127.3 160.3,2.5 235.2,2.5 235.2,22.1 
		180.8,22.1 180.8,54.6 230.7,54.6 230.7,74 	"/>
	<path class="st0" d="M420.9,107.7h28.5c11.8,0,21.3-4,28.7-12.1c7.5-8.1,11.2-18.3,11.2-30.7c0-12.4-3.7-22.6-11.2-30.7
		c-7.4-8.1-16.9-12.1-28.7-12.1h-28.5V107.7L420.9,107.7z M400.4,2.5h49.1c17.1,0,31.3,6,42.6,18c11.4,12,17.1,26.8,17.1,44.4
		c0,17.5-5.7,32.3-17.1,44.4c-11.3,12-25.5,18-42.6,18h-49.1V2.5z"/>
	<polygon class="st0" points="561.8,74 561.8,107.7 617.1,107.7 617.1,127.3 541.3,127.3 541.3,2.5 616.2,2.5 616.2,22.1 
		561.8,22.1 561.8,54.6 611.7,54.6 611.7,74 	"/>
	<polygon class="st0" points="725,19.4 669,107.7 726.4,107.7 726.4,127.3 643.5,127.3 643.5,110.4 699.5,22.1 644.7,22.1 
		644.7,2.5 725,2.5 	"/>
	<rect x="757.1" y="2.5" class="st0" width="20.5" height="124.9"/>
	<path class="st0" d="M855.7,129.7c-12,0-22.2-2.7-30.6-8.1c-8.4-5.4-14.2-12.9-17.6-22.6l17.7-10.3c5,14,15.3,21,31,21
		c7.6,0,13.4-1.5,17.3-4.5c3.9-3,5.9-7,5.9-12c0-5-2.1-8.9-6.2-11.6c-4.2-2.7-11.5-5.7-22.1-8.9c-10.8-3.2-19.6-7-26.2-11.4
		c-8.1-5.7-12.1-14.1-12.1-25.2s3.9-19.8,11.8-26.2c7.7-6.5,17.2-9.8,28.4-9.8c9.9,0,18.6,2.4,26.1,7.2c7.5,4.8,13.3,11.6,17.4,20.2
		l-17.3,10c-5.2-11.7-14-17.5-26.2-17.5c-5.9,0-10.7,1.4-14.3,4.2c-3.6,2.8-5.4,6.6-5.4,11.3c0,4.6,1.8,8.3,5.4,11
		c3.6,2.7,10.2,5.5,19.8,8.5c5.9,2,9.4,3.2,10.3,3.6c1.5,0.5,4.6,1.7,9.3,3.6c3.8,1.5,6.8,3.2,9.1,5c9.3,7.3,13.6,15.8,12.8,25.7
		c0,11.3-4.1,20.3-12.3,26.9C879.7,126.4,869.1,129.7,855.7,129.7z"/>
	<polygon class="st0" points="916.7,2.5 1007.7,2.5 1007.7,22.1 972.6,22.1 972.6,127.3 952.1,127.3 952.1,22.1 916.7,22.1 	"/>
	<polygon class="st1" points="318.3,118.5 266.7,118.5 292.5,69.9 318.3,21.4 344.1,69.9 369.8,118.5 	"/>
	<path class="st2" d="M330,83.5c0,6.5-5.3,11.8-11.8,11.8c-6.5,0-11.8-5.3-11.8-11.8c0-6.5,5.3-11.8,11.8-11.8
		C324.7,71.7,330,77,330,83.5z"/>
</g>
</svg>
